{"title":"The Gold Rush-720p MP4 AAC x264 Original Cut BRRip 1925-CC","uid":7909333,"size":3066159514,"categoryP":"video","categoryS":"hd___movies","magnet":"?xt=urn:btih:d181b935b41ce1da81aa40a0ec801d46b7c7fbe3&amp;dn=The+Gold+Rush-720p+MP4+AAC+x264+Original+Cut+BRRip+1925-CC&amp;tr=udp%3A%2F%2Ftracker.openbittorrent.com%3A80&amp;tr=udp%3A%2F%2Fopen.demonii.com%3A1337&amp;tr=udp%3A%2F%2Ftracker.coppersurfer.tk%3A6969&amp;tr=udp%3A%2F%2Fexodus.desync.com%3A6969","seeders":0,"leechers":2,"uploader":"Caveman44","files":-1,"time":1355172748,"description":" &lt;a href=&quot;http://www.imdb.com/title/tt0015864/&quot; rel=&quot;nofollow&quot; target=&quot;_NEW&quot;&gt;http://www.imdb.com/title/tt0015864/&lt;/a&gt;\n\nSource: The.Gold.Rush.1925.ORIGINAL.VERSION.BluRay.720p.x264-MySiLU Thanks!\n\nAudio: Silent Subs: None\n\nSample and Screens included.\n\nGeneral\nComplete name                            : The Gold Rush-720p MP4 AAC x264 Original Cut BRRip 1925-CC.mp4\nFormat                                   : MPEG-4\nFormat profile                           : Base Media\nCodec ID                                 : isom\nFile size                                : 2.83 GiB\nDuration                                 : 1h 29mn\nOverall bit rate mode                    : Variable\nOverall bit rate                         : 4 534 Kbps\nEncoded date                             : UTC 2012-11-21 19:31:29\n\nVideo\nID                                       : 1\nFormat                                   : AVC\nFormat/Info                              : Advanced Video Codec\nFormat profile                           : &lt;a class=&quot;__cf_email__&quot; href=&quot;/cdn-cgi/l/email-protection&quot; data-cfemail=&quot;c088a9a7a8808cf4eef1&quot;&gt;[email&amp;#160;protected]&lt;/a&gt;&lt;script cf-hash='f9e31' type=&quot;text/javascript&quot;&gt;\n/* &lt;![CDATA[ */!function(){try{var t=&quot;currentScript&quot;in document?document.currentScript:function(){for(var t=document.getElementsByTagName(&quot;script&quot;),e=t.length;e--;)if(t[e].getAttribute(&quot;cf-hash&quot;))return t[e]}();if(t&amp;&amp;t.previousSibling){var e,r,n,i,c=t.previousSibling,a=c.getAttribute(&quot;data-cfemail&quot;);if(a){for(e=&quot;&quot;,r=parseInt(a.substr(0,2),16),n=2;a.length-n;n+=2)i=parseInt(a.substr(n,2),16)^r,e+=String.fromCharCode(i);e=document.createTextNode(e),c.parentNode.replaceChild(e,c)}}}catch(u){}}();/* ]]&gt; */&lt;/script&gt;\nFormat settings, CABAC                   : Yes\nFormat settings, ReFrames                : 5 frames\nCodec ID                                 : avc1\nCodec ID/Info                            : Advanced Video Coding\nDuration                                 : 1h 29mn\nBit rate                                 : 4 138 Kbps\nMaximum bit rate                         : 31.3 Mbps\nWidth                                    : 960 pixels\nHeight                                   : 720 pixels\nDisplay aspect ratio                     : 4:3\nFrame rate mode                          : Variable\nFrame rate                               : 23.976 fps\nMinimum frame rate                       : 19.048 fps\nMaximum frame rate                       : 24.390 fps\nColor space                              : YUV\nChroma subsampling                       : 4:2:0\nBit depth                                : 8 bits\nScan type                                : Progressive\nBits/(Pixel*Frame)                       : 0.250\nStream size                              : 2.58 GiB (91%)\nWriting library                          : x264 core 112\n\nAudio\nID                                       : 2\nFormat                                   : AAC\nFormat/Info                              : Advanced Audio Codec\nFormat profile                           : LC\nCodec ID                                 : 40\nDuration                                 : 1h 29mn\nBit rate mode                            : Variable\nBit rate                                 : 384 Kbps\nMaximum bit rate                         : 704 Kbps\nChannel(s)                               : 6 channels\nChannel positions                        : Front: L C R, Side: L R, LFE\nSampling rate                            : 48.0 KHz\nCompression mode                         : Lossy\nDelay relative to video                  : 83ms\nStream size                              : 245 MiB (8%)\nLanguage                                 : Silence\n\nEnjoy...\n\nRequested by DreamExtractor \n\nComing soon: Donnie Darko, Buffalo 66, The Objective and more...","torrent":{"xt":"urn:btih:d181b935b41ce1da81aa40a0ec801d46b7c7fbe3","amp;dn":"The+Gold+Rush-720p+MP4+AAC+x264+Original+Cut+BRRip+1925-CC","amp;tr":["udp%3A%2F%2Ftracker.openbittorrent.com%3A80","udp%3A%2F%2Fopen.demonii.com%3A1337","udp%3A%2F%2Ftracker.coppersurfer.tk%3A6969","udp%3A%2F%2Fexodus.desync.com%3A6969"],"infoHash":"d181b935b41ce1da81aa40a0ec801d46b7c7fbe3","infoHashBuffer":{"type":"Buffer","data":[209,129,185,53,180,28,225,218,129,170,64,160,236,128,29,70,183,199,251,227]},"announce":[],"urlList":[]}}